<?xml version="1.0" encoding="utf-8"?>
<!-- Generator: Adobe Illustrator 26.1.0, SVG Export Plug-In . SVG Version: 6.00 Build 0)  -->
<svg version="1.1" id="Слой_1" xmlns="http://www.w3.org/2000/svg" xmlns:xlink="http://www.w3.org/1999/xlink" x="0px" y="0px"
	 viewBox="0 0 24 24" enable-background="new 0 0 24 24" xml:space="preserve">
<circle cx="18" cy="6" r="6"/>
<circle cx="6" cy="22" r="2"/>
<circle cx="16" cy="22" r="2"/>
<path d="M17,17H6.34c-0.15,0-0.25-0.16-0.18-0.3l0.65-1.19C6.99,15.2,7.33,15,7.69,15h6.85c0.73,0,1.4-0.4,1.75-1.03l0.07-0.13
	c-0.81-0.17-1.57-0.46-2.27-0.85C14.05,12.99,14.01,13,13.96,13H8.18c-0.38,0-0.74-0.22-0.9-0.57L5.29,8.29C5.22,8.15,5.32,8,5.47,8
	h4.79C10.1,7.36,10,6.69,10,6H4.2L3.52,4.57C3.36,4.22,3,4,2.62,4H1C0.45,4,0,4.45,0,5c0,0.55,0.45,1,1,1h1l3.38,7.14
	c0.14,0.29,0.13,0.63-0.03,0.91l-1.09,1.99C3.52,17.37,4.49,19,6.01,19H17c0.55,0,1-0.45,1-1C18,17.45,17.55,17,17,17z"/>
<text fill="#FFFFFF" font-family="Inter Medium" font-size="12px" style="&#10;    transform: matrix(1, 0, 0, 1, 14.25, 10.5);&#10;">5</text>
</svg>
