<?xml version="1.0" encoding="utf-8"?>
<!-- Generator: Adobe Illustrator 26.1.0, SVG Export Plug-In . SVG Version: 6.00 Build 0)  -->
<svg version="1.1" id="Слой_1" xmlns="http://www.w3.org/2000/svg" xmlns:xlink="http://www.w3.org/1999/xlink" x="0px" y="0px"
	 viewBox="0 0 24 24" enable-background="new 0 0 24 24" xml:space="preserve">
<g>
	<g>
		<path d="M6.29,6.29l1.99,4.15C8.44,10.78,8.79,11,9.18,11h5.78c0.36,0,0.7-0.2,0.88-0.52l2.3-4.19C18.21,6.16,18.11,6,17.96,6
			H6.47C6.32,6,6.22,6.15,6.29,6.29z M5.26,14.03l1.09-1.99c0.16-0.28,0.17-0.62,0.03-0.91L3,4H2C1.45,4,1,3.55,1,3v0
			c0-0.55,0.45-1,1-1h1.62C4,2,4.36,2.22,4.52,2.57L5.2,4h13.11c1.52,0,2.49,1.63,1.75,2.97l-2.76,5C16.94,12.6,16.27,13,15.55,13
			H8.69c-0.36,0-0.7,0.2-0.88,0.52L7.16,14.7C7.09,14.84,7.19,15,7.34,15H18c0.55,0,1,0.45,1,1v0c0,0.55-0.45,1-1,1H7.01
			C5.49,17,4.52,15.37,5.26,14.03z M8.55,11h7H8.55z"/>
		<circle cx="7" cy="20" r="2"/>
		<circle cx="17" cy="20" r="2"/>
	</g>
</g>
</svg>
