<?xml version="1.0" encoding="utf-8"?>
<!-- Generator: Adobe Illustrator 26.1.0, SVG Export Plug-In . SVG Version: 6.00 Build 0)  -->
<svg version="1.1" id="Слой_1" xmlns:v="https://vecta.io/nano"
	 xmlns="http://www.w3.org/2000/svg" xmlns:xlink="http://www.w3.org/1999/xlink" x="0px" y="0px" viewBox="0 0 256 256"
	 style="enable-background:new 0 0 256 256;" xml:space="preserve">
<style type="text/css">
	.st0{fill:#BCCC23;}
	.st1{fill:#E4F94E;animation-delay: .1s;}
	.st2{fill:#DFEA4B;animation-delay: .3s;}
	path {
    	transform-origin: right bottom;
		animation: move 1s cubic-bezier(0.5, 0, 0.5, 1) alternate infinite
	}

	@keyframes move {
		0% { transform: rotate(5deg) }
		100% { transform: rotate(-5deg); opacity: 0.9; }
	}
</style>
<path class="st0" d="M104.7,81.9L104.7,81.9c4.9,18.5-12,35.4-30.4,30.4l0,0c-8.6-2.3-17.7,0.2-24,6.4l-26.9,26.9
	c-13.5,13.5-7.3,36.7,11.1,41.6l156.7,42c18.5,5,35.4-12,30.5-30.5l-42-156.7c-5-18.5-28.1-24.7-41.6-11.1l-26.9,26.9
	C104.8,64.2,102.4,73.3,104.7,81.9z"/>
<path class="st1" d="M129.9,86l4.7,17.6c6.3,23.4-15.1,44.8-38.5,38.5l-17.6-4.7c-10.9-2.9-22.5,0.2-30.4,8.2l0,0
	c-17.1,17.1-9.3,46.4,14.1,52.6L185,231.2c23.4,6.3,44.8-15.1,38.6-38.5L190.7,69.7c-6.3-23.4-35.5-31.3-52.6-14.1l0,0
	C130.1,63.5,126.9,75.1,129.9,86z"/>
<path class="st2" d="M161.9,136.3l3,11.1c3.9,14.8-9.6,28.2-24.3,24.3l-11-3c-6.9-1.9-14.2,0.1-19.2,5.1l0,0
	c-10.8,10.8-5.9,29.2,8.9,33.2l77.5,20.8c14.7,4,28.2-9.5,24.3-24.3L200.2,126c-4-14.7-22.4-19.7-33.2-8.9l0,0
	C162,122.2,160.1,129.5,161.9,136.3z"/>
</svg>
