<?xml version="1.0" encoding="utf-8"?>
<!-- Generator: Adobe Illustrator 26.1.0, SVG Export Plug-In . SVG Version: 6.00 Build 0)  -->
<svg version="1.1" id="Слой_1" xmlns:v="https://vecta.io/nano"
	 xmlns="http://www.w3.org/2000/svg" xmlns:xlink="http://www.w3.org/1999/xlink" x="0px" y="0px" viewBox="0 0 256 256"
	 style="enable-background:new 0 0 256 256;" xml:space="preserve">
<style type="text/css">
	.st0{fill:#444343;}
	.st1{fill:#FFE3E3;stroke:#444343;stroke-width:20;stroke-miterlimit:10;}
	.st2{fill:#FFE3E3;}
	.st3{fill:none;stroke:#FFE3E3;stroke-width:5.1108;stroke-linecap:round;stroke-linejoin:round;stroke-miterlimit:10;}
	.st4{fill:#FFDE8A;}
	.st5{fill:#020202;}
	.st6{opacity:0.2;fill:#FFFFFF;}
	.move{animation: move ease 2s  infinite}
	.move2{animation: move2 ease 2s  infinite}
	
	@keyframes move {
		0%{transform:translateX(-12px)}
		50% {transform:translateX(5px)}
		100% {transform:translateX(-12px)}
	}
	@keyframes move2 {
		0%{transform:translateX(-6px)}
		50% {transform:translateX(2.5px)}
		100% {transform:translateX(-6px)}
	}
</style>
<ellipse transform="matrix(0.1663 -0.9861 0.9861 0.1663 -54.667 240.1603)" class="st0" cx="114.7" cy="152.4" rx="89.8" ry="106.4"/>
<path class="st1" d="M25.6,115.2l2.9-72.7C29.2,24.8,50.3,16,63.3,28l57.5,52.9c5.1,4.7,12.3,6.5,19,4.9l74.2-18.2
	c16.4-4,30.4,12.1,24.3,27.8L212,163.3c-4.5,9.3-7.7,11.2-10,11c-9.2-0.7-4.7-35.8-26.1-61.9c-14.1-17.2-33.1-22.9-44.2-26.3
	c-5.9-1.8-53.2-16.5-78.6,7.4c-14.1,13.3-18.1,35.9-23.3,34.8C26.9,127.7,26,121.1,25.6,115.2z"/>
<g>
	<polygon class="st2" points="96.6,204.5 91.5,203 97.3,185.8 102.3,187.2 	"/>
	<g>
		<path class="st3" d="M74.3,196.6c3.4,8.2,12.4,10.9,20.1,5.9"/>
		<path class="st3" d="M94.5,202.6c3.4,8.2,12.4,10.9,20.1,5.9"/>
	</g>
	<path class="st2" d="M121.8,176.8c-0.5-7-13.8-10.9-15.1-11.3c-1.3-0.4-14.6-4.3-19.2,1.2c-4.7,5.6,0.1,20.3,11.1,23.5
		C109.5,193.4,122.3,183.9,121.8,176.8z"/>
</g>
<g>
	
		<ellipse  transform="matrix(0.9472 -0.3205 0.3205 0.9472 -41.1759 58.1172)" class="st4 move2" cx="156" cy="154.1" rx="23.3" ry="22.5"/>
	<path class="st5 move" d="M162.3,135.8c-13.6,10.6-14.9,24.4-3.5,37.3C172.4,162.5,173.7,148.7,162.3,135.8z"/>
	<ellipse transform="matrix(0.9472 -0.3205 0.3205 0.9472 -38.496 58.9601)" class="st6 move" cx="159.9" cy="146.4" rx="5.8" ry="5.6"/>
</g>
<g>
	
		<ellipse transform="matrix(0.9472 -0.3205 0.3205 0.9472 -38.2564 30.1976)" class="st4 move2" cx="72.6" cy="131.3" rx="23.3" ry="22.5"/>
	<path class="st5 move" d="M79,112.9c-13.6,10.6-14.9,24.4-3.5,37.3C89,139.7,90.3,125.8,79,112.9z"/>
	<ellipse transform="matrix(0.9472 -0.3205 0.3205 0.9472 -35.5765 31.0405)" class="st6 move" cx="76.5" cy="123.6" rx="5.8" ry="5.6"/>
</g>
</svg>
